<svg width="508" height="334" viewBox="0 0 508 334" fill="none" xmlns="http://www.w3.org/2000/svg">
<circle cx="251" cy="167" r="167" fill="#F9F5FF" fill-opacity="0.08"/>
<mask id="path-2-inside-1_59_10741" fill="white">
<path d="M312.826 42.9129C281.507 26.5512 245.159 22.6375 211.075 31.9572C176.991 41.2769 147.691 63.1405 129.055 93.1617C110.419 123.183 103.824 159.141 110.593 193.822C117.363 228.503 136.996 259.341 165.555 280.149L193.221 242.18C174.246 228.354 161.201 207.864 156.703 184.821C152.205 161.778 156.587 137.887 168.97 117.94C181.352 97.9928 200.819 83.466 223.466 77.2737C246.113 71.0814 270.263 73.6818 291.072 84.553L312.826 42.9129Z"/>
</mask>
<path d="M312.826 42.9129C281.507 26.5512 245.159 22.6375 211.075 31.9572C176.991 41.2769 147.691 63.1405 129.055 93.1617C110.419 123.183 103.824 159.141 110.593 193.822C117.363 228.503 136.996 259.341 165.555 280.149L193.221 242.18C174.246 228.354 161.201 207.864 156.703 184.821C152.205 161.778 156.587 137.887 168.97 117.94C181.352 97.9928 200.819 83.466 223.466 77.2737C246.113 71.0814 270.263 73.6818 291.072 84.553L312.826 42.9129Z" fill="#53389E" stroke="white" stroke-opacity="0.24" stroke-width="10" mask="url(#path-2-inside-1_59_10741)"/>
<path d="M143.574 260.249C157.836 276.219 175.57 288.706 195.413 296.748C215.256 304.791 236.68 308.175 258.036 306.64C279.392 305.105 300.111 298.692 318.6 287.895C337.089 277.098 352.856 262.203 364.687 244.358C376.517 226.512 384.097 206.191 386.844 184.957C389.59 163.722 387.429 142.141 380.528 121.873C373.626 101.605 362.168 83.1895 347.034 68.0437C331.9 52.8979 313.493 41.4251 293.23 34.5077L278.052 78.9683C291.516 83.5644 303.745 91.1873 313.801 101.251C323.856 111.314 331.47 123.55 336.055 137.016C340.641 150.483 342.076 164.822 340.252 178.931C338.427 193.04 333.391 206.542 325.53 218.399C317.669 230.256 307.194 240.152 294.909 247.326C282.624 254.5 268.857 258.761 254.668 259.781C240.478 260.8 226.244 258.552 213.06 253.208C199.875 247.865 188.092 239.568 178.617 228.957L143.574 260.249Z" fill="#7F56D9"/>
<path d="M220.749 150.772V159H217.383V150.704L207.931 135.2H211.569L219.185 147.746L226.835 135.2H230.201L220.749 150.772ZM238.953 159.204C237.162 159.204 235.553 158.807 234.125 158.014C232.697 157.221 231.575 156.133 230.759 154.75C229.965 153.345 229.569 151.758 229.569 149.99C229.569 148.222 229.965 146.647 230.759 145.264C231.575 143.859 232.697 142.771 234.125 142C235.553 141.207 237.162 140.81 238.953 140.81C240.743 140.81 242.341 141.207 243.747 142C245.175 142.771 246.285 143.859 247.079 145.264C247.895 146.647 248.303 148.222 248.303 149.99C248.303 151.758 247.895 153.345 247.079 154.75C246.285 156.133 245.175 157.221 243.747 158.014C242.341 158.807 240.743 159.204 238.953 159.204ZM238.953 156.348C240.109 156.348 241.14 156.087 242.047 155.566C242.976 155.022 243.701 154.274 244.223 153.322C244.744 152.347 245.005 151.237 245.005 149.99C245.005 148.743 244.744 147.644 244.223 146.692C243.701 145.717 242.976 144.969 242.047 144.448C241.14 143.927 240.109 143.666 238.953 143.666C237.797 143.666 236.754 143.927 235.825 144.448C234.918 144.969 234.193 145.717 233.649 146.692C233.127 147.644 232.867 148.743 232.867 149.99C232.867 151.237 233.127 152.347 233.649 153.322C234.193 154.274 234.918 155.022 235.825 155.566C236.754 156.087 237.797 156.348 238.953 156.348ZM269.698 140.98V159H266.604V156.28C265.946 157.209 265.074 157.935 263.986 158.456C262.92 158.955 261.753 159.204 260.484 159.204C258.081 159.204 256.188 158.547 254.806 157.232C253.423 155.895 252.732 153.934 252.732 151.35V140.98H255.996V150.976C255.996 152.721 256.415 154.047 257.254 154.954C258.092 155.838 259.294 156.28 260.858 156.28C262.58 156.28 263.94 155.759 264.938 154.716C265.935 153.673 266.434 152.2 266.434 150.296V140.98H269.698ZM279.124 144.006C279.691 142.963 280.53 142.17 281.64 141.626C282.751 141.082 284.1 140.81 285.686 140.81V143.972C285.505 143.949 285.256 143.938 284.938 143.938C283.17 143.938 281.776 144.471 280.756 145.536C279.759 146.579 279.26 148.075 279.26 150.024V159H275.996V140.98H279.124V144.006ZM208.181 180.81C209.926 180.81 211.49 181.195 212.873 181.966C214.256 182.737 215.332 183.813 216.103 185.196C216.896 186.579 217.293 188.177 217.293 189.99C217.293 191.803 216.896 193.413 216.103 194.818C215.332 196.201 214.256 197.277 212.873 198.048C211.49 198.819 209.926 199.204 208.181 199.204C206.844 199.204 205.62 198.943 204.509 198.422C203.398 197.901 202.48 197.141 201.755 196.144V199H198.627V173.772H201.891V183.7C202.616 182.748 203.523 182.034 204.611 181.558C205.699 181.059 206.889 180.81 208.181 180.81ZM207.909 196.348C209.065 196.348 210.096 196.087 211.003 195.566C211.932 195.022 212.658 194.274 213.179 193.322C213.723 192.347 213.995 191.237 213.995 189.99C213.995 188.743 213.723 187.644 213.179 186.692C212.658 185.717 211.932 184.969 211.003 184.448C210.096 183.927 209.065 183.666 207.909 183.666C206.776 183.666 205.744 183.927 204.815 184.448C203.886 184.969 203.16 185.717 202.639 186.692C202.118 187.644 201.857 188.743 201.857 189.99C201.857 191.237 202.118 192.347 202.639 193.322C203.16 194.274 203.886 195.022 204.815 195.566C205.744 196.087 206.776 196.348 207.909 196.348ZM225.016 184.006C225.583 182.963 226.421 182.17 227.532 181.626C228.643 181.082 229.991 180.81 231.578 180.81V183.972C231.397 183.949 231.147 183.938 230.83 183.938C229.062 183.938 227.668 184.471 226.648 185.536C225.651 186.579 225.152 188.075 225.152 190.024V199H221.888V180.98H225.016V184.006ZM242.215 180.81C244.708 180.81 246.612 181.422 247.927 182.646C249.264 183.87 249.933 185.695 249.933 188.12V199H246.839V196.62C246.295 197.459 245.513 198.105 244.493 198.558C243.495 198.989 242.305 199.204 240.923 199.204C238.905 199.204 237.285 198.717 236.061 197.742C234.859 196.767 234.259 195.487 234.259 193.9C234.259 192.313 234.837 191.044 235.993 190.092C237.149 189.117 238.985 188.63 241.501 188.63H246.669V187.984C246.669 186.579 246.261 185.502 245.445 184.754C244.629 184.006 243.427 183.632 241.841 183.632C240.775 183.632 239.733 183.813 238.713 184.176C237.693 184.516 236.831 184.981 236.129 185.57L234.769 183.122C235.698 182.374 236.809 181.807 238.101 181.422C239.393 181.014 240.764 180.81 242.215 180.81ZM241.467 196.688C242.713 196.688 243.79 196.416 244.697 195.872C245.603 195.305 246.261 194.512 246.669 193.492V190.976H241.637C238.871 190.976 237.489 191.905 237.489 193.764C237.489 194.671 237.84 195.385 238.543 195.906C239.245 196.427 240.22 196.688 241.467 196.688ZM265.68 180.81C267.969 180.81 269.783 181.479 271.12 182.816C272.48 184.131 273.16 186.069 273.16 188.63V199H269.896V189.004C269.896 187.259 269.477 185.944 268.638 185.06C267.799 184.176 266.598 183.734 265.034 183.734C263.266 183.734 261.872 184.255 260.852 185.298C259.832 186.318 259.322 187.791 259.322 189.718V199H256.058V180.98H259.186V183.7C259.843 182.771 260.727 182.057 261.838 181.558C262.971 181.059 264.252 180.81 265.68 180.81ZM296.385 173.772V199H293.257V196.144C292.532 197.141 291.614 197.901 290.503 198.422C289.392 198.943 288.168 199.204 286.831 199.204C285.086 199.204 283.522 198.819 282.139 198.048C280.756 197.277 279.668 196.201 278.875 194.818C278.104 193.413 277.719 191.803 277.719 189.99C277.719 188.177 278.104 186.579 278.875 185.196C279.668 183.813 280.756 182.737 282.139 181.966C283.522 181.195 285.086 180.81 286.831 180.81C288.123 180.81 289.313 181.059 290.401 181.558C291.489 182.034 292.396 182.748 293.121 183.7V173.772H296.385ZM287.103 196.348C288.236 196.348 289.268 196.087 290.197 195.566C291.126 195.022 291.852 194.274 292.373 193.322C292.894 192.347 293.155 191.237 293.155 189.99C293.155 188.743 292.894 187.644 292.373 186.692C291.852 185.717 291.126 184.969 290.197 184.448C289.268 183.927 288.236 183.666 287.103 183.666C285.947 183.666 284.904 183.927 283.975 184.448C283.068 184.969 282.343 185.717 281.799 186.692C281.278 187.644 281.017 188.743 281.017 189.99C281.017 191.237 281.278 192.347 281.799 193.322C282.343 194.274 283.068 195.022 283.975 195.566C284.904 196.087 285.947 196.348 287.103 196.348Z" fill="#B692F6"/>
<g filter="url(#filter0_b_59_10741)">
<rect x="334" y="56" width="148" height="46" rx="8" fill="#7F56D9" fill-opacity="0.24"/>
<path d="M364.055 84C363.977 83.6745 363.801 83.4987 363.527 83.4727H362.199V72.8086H362.531C363.469 72.8086 364.133 73.2253 364.523 74.0586C364.602 74.2409 364.686 74.4557 364.777 74.7031L365.383 76.4609H365.969L365.891 72.2812H355.773L355.695 76.4609H356.281L356.887 74.7031C357.173 73.8698 357.544 73.3229 358 73.0625C358.312 72.8932 358.69 72.8086 359.133 72.8086H359.465V83.4727H357.609V84H364.055ZM371.711 83.4922H370.266V79.2734C370.357 77.9062 370.689 77.0729 371.262 76.7734C371.353 76.7344 371.438 76.7148 371.516 76.7148C371.659 76.7148 371.815 76.8646 371.984 77.1641C372.219 77.5807 372.473 77.8411 372.746 77.9453C372.876 77.9844 373.02 78.0039 373.176 78.0039C373.697 78.0039 374.068 77.7565 374.289 77.2617C374.367 77.0924 374.406 76.9167 374.406 76.7344C374.406 76.0833 374.087 75.6732 373.449 75.5039C373.293 75.4648 373.13 75.4453 372.961 75.4453C372.154 75.4453 371.444 75.7643 370.832 76.4023C370.559 76.7148 370.35 77.0534 370.207 77.418L370.07 75.6016H366.652V76.1094H367.785V82.4766C367.785 83.0495 367.557 83.375 367.102 83.4531C366.971 83.4792 366.822 83.4922 366.652 83.4922V84H372.18C372.18 83.7005 372.095 83.5378 371.926 83.5117C371.861 83.4987 371.789 83.4922 371.711 83.4922ZM384.621 83.4922H383.957V75.6016H380.52V76.1094H381.477L381.457 81.0312C381.366 82.0469 380.995 82.7174 380.344 83.043C380.148 83.1341 379.953 83.1797 379.758 83.1797C379.016 83.1797 378.579 82.7435 378.449 81.8711C378.423 81.7018 378.41 81.526 378.41 81.3438V75.6016H374.797V76.1094H375.93V81.0117C375.956 83.1211 376.887 84.1823 378.723 84.1953C379.895 84.1953 380.786 83.6745 381.398 82.6328C381.438 82.5547 381.477 82.4766 381.516 82.3984L381.613 84H385.09C385.09 83.7135 385.012 83.5508 384.855 83.5117C384.79 83.4987 384.712 83.4922 384.621 83.4922ZM389.309 83.6484C390.181 83.6484 390.682 83.3359 390.812 82.7109C390.826 82.6198 390.832 82.5352 390.832 82.457C390.832 81.793 390.415 81.2396 389.582 80.7969C389.4 80.6927 389.107 80.556 388.703 80.3867C387.727 79.957 387.082 79.5599 386.77 79.1953C386.431 78.8047 386.262 78.3424 386.262 77.8086C386.262 76.7018 386.867 75.9531 388.078 75.5625C388.586 75.3932 389.152 75.3086 389.777 75.3086C390.793 75.3086 391.587 75.4909 392.16 75.8555C392.16 75.4648 392.277 75.25 392.512 75.2109C392.564 75.1979 392.616 75.1914 392.668 75.1914V77.6328H392.043C391.991 76.4479 391.346 75.849 390.109 75.8359C389.276 75.8359 388.762 76.1094 388.566 76.6562C388.527 76.7865 388.508 76.9167 388.508 77.0469C388.508 77.6068 388.898 78.082 389.68 78.4727C389.836 78.5638 390.096 78.6875 390.461 78.8438C391.477 79.2995 392.154 79.7161 392.492 80.0938C392.883 80.5365 393.078 81.0638 393.078 81.6758C393.078 82.8086 392.492 83.5703 391.32 83.9609C390.839 84.1172 390.298 84.1953 389.699 84.1953C388.553 84.1953 387.59 83.9935 386.809 83.5898C386.809 83.9284 386.724 84.1237 386.555 84.1758C386.477 84.1888 386.385 84.1953 386.281 84.1953V81.2266H386.945C386.971 82.8281 387.759 83.6354 389.309 83.6484ZM393.957 76.207H395.305V81.0898C395.305 82.9779 396.086 84.013 397.648 84.1953C397.805 84.2083 397.961 84.2148 398.117 84.2148C399.12 84.2148 399.81 83.8893 400.188 83.2383C400.37 82.9128 400.513 82.4831 400.617 81.9492L400.09 81.8711C399.829 82.9258 399.445 83.5052 398.938 83.6094C398.859 83.6224 398.781 83.6289 398.703 83.6289C398.221 83.6289 397.928 83.2904 397.824 82.6133C397.798 82.457 397.785 82.2943 397.785 82.125V76.207H400.363V75.6992H397.785V73.4336L395.305 73.8438V75.6992H393.957V76.207ZM405.324 76.1094V75.6016H400.812V76.1094H401.633L403.898 82.6719C404.172 83.4531 404.445 83.9023 404.719 84.0195C404.849 84.0716 405.012 84.0977 405.207 84.0977H405.852L407.668 78.4531L409.113 82.6719C409.374 83.4141 409.589 83.8438 409.758 83.9609C409.901 84.0521 410.103 84.0977 410.363 84.0977H411.008L413.449 76.6758C413.684 76.3242 413.931 76.1354 414.191 76.1094C414.426 76.1094 414.549 76.0052 414.562 75.7969C414.576 75.7318 414.582 75.6667 414.582 75.6016H411.809V76.1094H413.02L411.203 81.8125L409.289 76.1094H410.461V75.6016H406.672L407.336 77.5547L406.047 81.793L404.152 76.1094H405.324ZM417.844 79.7617C417.844 77.9388 418.065 76.7734 418.508 76.2656C418.781 75.9661 419.165 75.8164 419.66 75.8164C420.493 75.8164 421.027 76.2396 421.262 77.0859C421.418 77.6328 421.496 78.4987 421.496 79.6836C421.496 81.5846 421.249 82.7826 420.754 83.2773C420.467 83.5508 420.096 83.6875 419.641 83.6875C418.833 83.6875 418.312 83.2708 418.078 82.4375C417.922 81.8776 417.844 80.9857 417.844 79.7617ZM419.758 75.3086C418.156 75.3086 416.926 75.8555 416.066 76.9492C415.467 77.7305 415.168 78.6419 415.168 79.6836C415.168 81.1549 415.676 82.3203 416.691 83.1797C417.499 83.8568 418.462 84.1953 419.582 84.1953C421.118 84.1953 422.323 83.6419 423.195 82.5352C423.846 81.7018 424.172 80.7383 424.172 79.6445C424.172 78.1862 423.658 77.0469 422.629 76.2266C421.835 75.6146 420.878 75.3086 419.758 75.3086ZM430.207 83.4922H428.762V79.2734C428.853 77.9062 429.185 77.0729 429.758 76.7734C429.849 76.7344 429.934 76.7148 430.012 76.7148C430.155 76.7148 430.311 76.8646 430.48 77.1641C430.715 77.5807 430.969 77.8411 431.242 77.9453C431.372 77.9844 431.516 78.0039 431.672 78.0039C432.193 78.0039 432.564 77.7565 432.785 77.2617C432.863 77.0924 432.902 76.9167 432.902 76.7344C432.902 76.0833 432.583 75.6732 431.945 75.5039C431.789 75.4648 431.626 75.4453 431.457 75.4453C430.65 75.4453 429.94 75.7643 429.328 76.4023C429.055 76.7148 428.846 77.0534 428.703 77.418L428.566 75.6016H425.148V76.1094H426.281V82.4766C426.281 83.0495 426.053 83.375 425.598 83.4531C425.467 83.4792 425.318 83.4922 425.148 83.4922V84H430.676C430.676 83.7005 430.591 83.5378 430.422 83.5117C430.357 83.4987 430.285 83.4922 430.207 83.4922ZM433.293 76.207H434.641V81.0898C434.641 82.9779 435.422 84.013 436.984 84.1953C437.141 84.2083 437.297 84.2148 437.453 84.2148C438.456 84.2148 439.146 83.8893 439.523 83.2383C439.706 82.9128 439.849 82.4831 439.953 81.9492L439.426 81.8711C439.165 82.9258 438.781 83.5052 438.273 83.6094C438.195 83.6224 438.117 83.6289 438.039 83.6289C437.557 83.6289 437.264 83.2904 437.16 82.6133C437.134 82.457 437.121 82.2943 437.121 82.125V76.207H439.699V75.6992H437.121V73.4336L434.641 73.8438V75.6992H433.293V76.207ZM444.562 83.4922H444.074V78.8047C444.074 77.6589 444.426 76.8971 445.129 76.5195C445.35 76.4023 445.565 76.3438 445.773 76.3438C446.568 76.3438 447.01 76.832 447.102 77.8086C447.115 77.9128 447.121 78.0299 447.121 78.1602V82.4766C447.121 82.9974 447.043 83.3034 446.887 83.3945C446.757 83.4596 446.581 83.4922 446.359 83.4922V84H450.734C450.734 83.7005 450.65 83.5378 450.48 83.5117C450.402 83.4987 450.324 83.4922 450.246 83.4922H449.602V78.4922C449.602 76.8646 449.022 75.8555 447.863 75.4648C447.577 75.3607 447.264 75.3086 446.926 75.3086C445.871 75.3086 445.031 75.7122 444.406 76.5195C444.276 76.7018 444.165 76.8841 444.074 77.0664V71.3047H440.441V71.8125H441.594V82.4766C441.594 83.0885 441.301 83.4206 440.715 83.4727C440.624 83.4857 440.533 83.4922 440.441 83.4922V84H445.031C445.031 83.7005 444.947 83.5378 444.777 83.5117C444.712 83.4987 444.641 83.4922 444.562 83.4922ZM453.566 87.125C453.332 87.125 453.143 86.9492 453 86.5977C452.818 86.1419 452.655 85.8555 452.512 85.7383C452.342 85.6211 452.147 85.5625 451.926 85.5625C451.457 85.5625 451.158 85.7643 451.027 86.168C451.001 86.2721 450.988 86.3698 450.988 86.4609C450.988 86.8906 451.249 87.2422 451.77 87.5156C452.134 87.7109 452.557 87.8086 453.039 87.8086C454.133 87.8086 455.038 87.1771 455.754 85.9141C456.027 85.4583 456.288 84.9049 456.535 84.2539L459.465 76.6562C459.686 76.3047 459.901 76.1159 460.109 76.0898C460.396 76.0898 460.552 75.9922 460.578 75.7969C460.591 75.7318 460.598 75.6667 460.598 75.6016H457.57V76.0898H459.035L456.906 81.5391L454.543 76.0898H455.734V75.6016H451.145V76.0898H451.965L455.773 84.4102C455.148 85.9596 454.549 86.8385 453.977 87.0469C453.833 87.099 453.697 87.125 453.566 87.125Z" fill="#F4EBFF"/>
</g>
<g filter="url(#filter1_b_59_10741)">
<rect x="51" y="258" width="148" height="46" rx="8" fill="#7F56D9" fill-opacity="0.24"/>
<path d="M116.562 285.238C116.549 285.733 116.66 286.007 116.895 286.059C116.986 286.085 117.103 286.098 117.246 286.098V282.25H116.602C116.12 284.06 115.267 285.134 114.043 285.473C113.704 285.564 113.327 285.609 112.91 285.609C111.257 285.609 110.221 284.672 109.805 282.797C109.648 282.055 109.57 281.137 109.57 280.043C109.583 276.475 110.749 274.685 113.066 274.672C114.29 274.672 115.195 275.173 115.781 276.176C116.055 276.658 116.296 277.276 116.504 278.031H117.188L117.129 274.184C116.79 274.184 116.589 274.288 116.523 274.496C116.497 274.626 116.491 274.796 116.504 275.004C115.371 274.392 114.121 274.086 112.754 274.086C110.566 274.086 108.893 274.848 107.734 276.371C106.914 277.465 106.504 278.721 106.504 280.141C106.504 281.82 107.044 283.233 108.125 284.379C109.284 285.59 110.807 286.195 112.695 286.195C114.036 286.195 115.326 285.876 116.562 285.238ZM120.898 281.762C120.898 279.939 121.12 278.773 121.562 278.266C121.836 277.966 122.22 277.816 122.715 277.816C123.548 277.816 124.082 278.24 124.316 279.086C124.473 279.633 124.551 280.499 124.551 281.684C124.551 283.585 124.303 284.783 123.809 285.277C123.522 285.551 123.151 285.688 122.695 285.688C121.888 285.688 121.367 285.271 121.133 284.438C120.977 283.878 120.898 282.986 120.898 281.762ZM122.812 277.309C121.211 277.309 119.98 277.855 119.121 278.949C118.522 279.73 118.223 280.642 118.223 281.684C118.223 283.155 118.73 284.32 119.746 285.18C120.553 285.857 121.517 286.195 122.637 286.195C124.173 286.195 125.378 285.642 126.25 284.535C126.901 283.702 127.227 282.738 127.227 281.645C127.227 280.186 126.712 279.047 125.684 278.227C124.889 277.615 123.932 277.309 122.812 277.309ZM131.074 281.762C131.074 279.939 131.296 278.773 131.738 278.266C132.012 277.966 132.396 277.816 132.891 277.816C133.724 277.816 134.258 278.24 134.492 279.086C134.648 279.633 134.727 280.499 134.727 281.684C134.727 283.585 134.479 284.783 133.984 285.277C133.698 285.551 133.327 285.688 132.871 285.688C132.064 285.688 131.543 285.271 131.309 284.438C131.152 283.878 131.074 282.986 131.074 281.762ZM132.988 277.309C131.387 277.309 130.156 277.855 129.297 278.949C128.698 279.73 128.398 280.642 128.398 281.684C128.398 283.155 128.906 284.32 129.922 285.18C130.729 285.857 131.693 286.195 132.812 286.195C134.349 286.195 135.553 285.642 136.426 284.535C137.077 283.702 137.402 282.738 137.402 281.645C137.402 280.186 136.888 279.047 135.859 278.227C135.065 277.615 134.108 277.309 132.988 277.309ZM143.262 285.492H142.285V273.305H138.281V273.812H139.805V284.438C139.805 284.971 139.59 285.297 139.16 285.414C138.939 285.466 138.646 285.492 138.281 285.492V286H143.73C143.73 285.701 143.646 285.538 143.477 285.512C143.411 285.499 143.34 285.492 143.262 285.492Z" fill="#F4EBFF"/>
</g>
<g filter="url(#filter2_b_59_10741)">
<rect y="78" width="148" height="46" rx="8" fill="#7F56D9" fill-opacity="0.24"/>
<path d="M52.6035 106C52.5254 105.674 52.3496 105.499 52.0762 105.473H50.748V94.8086H51.0801C52.0176 94.8086 52.6816 95.2253 53.0723 96.0586C53.1504 96.2409 53.235 96.4557 53.3262 96.7031L53.9316 98.4609H54.5176L54.4395 94.2812H44.3223L44.2441 98.4609H44.8301L45.4355 96.7031C45.722 95.8698 46.0931 95.3229 46.5488 95.0625C46.8613 94.8932 47.2389 94.8086 47.6816 94.8086H48.0137V105.473H46.1582V106H52.6035ZM60.2598 105.492H58.8145V101.273C58.9056 99.9062 59.2376 99.0729 59.8105 98.7734C59.9017 98.7344 59.9863 98.7148 60.0645 98.7148C60.2077 98.7148 60.3639 98.8646 60.5332 99.1641C60.7676 99.5807 61.0215 99.8411 61.2949 99.9453C61.4251 99.9844 61.5684 100.004 61.7246 100.004C62.2454 100.004 62.6165 99.7565 62.8379 99.2617C62.916 99.0924 62.9551 98.9167 62.9551 98.7344C62.9551 98.0833 62.6361 97.6732 61.998 97.5039C61.8418 97.4648 61.679 97.4453 61.5098 97.4453C60.7025 97.4453 59.9928 97.7643 59.3809 98.4023C59.1074 98.7148 58.8991 99.0534 58.7559 99.418L58.6191 97.6016H55.2012V98.1094H56.334V104.477C56.334 105.049 56.1061 105.375 55.6504 105.453C55.5202 105.479 55.3704 105.492 55.2012 105.492V106H60.7285C60.7285 105.701 60.6439 105.538 60.4746 105.512C60.4095 105.499 60.3379 105.492 60.2598 105.492ZM68.0137 97.8164C68.847 97.8424 69.2702 98.5521 69.2832 99.9453C69.2832 100.557 69.1009 100.935 68.7363 101.078C68.4759 101.169 68.0853 101.202 67.5645 101.176L66.3145 101.117C66.4056 98.9557 66.972 97.8555 68.0137 97.8164ZM71.666 103.988L71.1973 103.832C70.8327 104.626 70.2598 105.167 69.4785 105.453C69.166 105.57 68.847 105.629 68.5215 105.629C67.4798 105.629 66.8092 104.965 66.5098 103.637C66.3926 103.09 66.3275 102.439 66.3145 101.684L68.1113 101.742C70.2077 101.807 71.4251 101.475 71.7637 100.746C71.8418 100.564 71.8809 100.362 71.8809 100.141C71.8809 99.0339 71.3145 98.2266 70.1816 97.7188C69.5436 97.4453 68.821 97.3086 68.0137 97.3086C66.5423 97.3086 65.3965 97.8099 64.5762 98.8125C63.9512 99.5938 63.6387 100.564 63.6387 101.723C63.6387 103.611 64.3483 104.926 65.7676 105.668C66.4447 106.02 67.2129 106.195 68.0723 106.195C69.5957 106.195 70.6895 105.661 71.3535 104.594C71.4837 104.398 71.5879 104.197 71.666 103.988ZM76.8418 105.492H76.3535L76.373 100.492C76.4642 99.4635 76.8418 98.7865 77.5059 98.4609C77.6882 98.3698 77.877 98.3242 78.0723 98.3242C78.8145 98.3242 79.2507 98.7604 79.3809 99.6328C79.4069 99.8021 79.4199 99.9779 79.4199 100.16V104.477C79.4199 105.023 79.2767 105.342 78.9902 105.434C78.86 105.473 78.7038 105.492 78.5215 105.492V106H83.0332C83.0332 105.701 82.9486 105.538 82.7793 105.512C82.7012 105.499 82.623 105.492 82.5449 105.492H81.9004V100.492C81.9004 98.8776 81.3275 97.8685 80.1816 97.4648C79.8691 97.3607 79.5436 97.3086 79.2051 97.3086C78.2546 97.3086 77.4473 97.6862 76.7832 98.4414C76.5879 98.6628 76.4316 98.8906 76.3145 99.125L76.2168 97.6016H72.7402V98.1094H73.873V104.477C73.873 105.076 73.5931 105.408 73.0332 105.473C72.9421 105.486 72.8444 105.492 72.7402 105.492V106H77.3105C77.3105 105.701 77.2259 105.538 77.0566 105.512C76.9915 105.499 76.9199 105.492 76.8418 105.492ZM90.6895 106H94.1855C94.1855 105.701 94.1074 105.531 93.9512 105.492C93.8861 105.479 93.8079 105.473 93.7168 105.473H92.8184V93.3047H88.5605V93.8125H90.3379V98.1484C89.6738 97.5755 88.8796 97.2891 87.9551 97.2891C86.7181 97.2891 85.709 97.7643 84.9277 98.7148C84.2507 99.5742 83.9121 100.655 83.9121 101.957C83.9121 103.572 84.4395 104.763 85.4941 105.531C86.0931 105.974 86.7572 106.195 87.4863 106.195C88.6973 106.195 89.5957 105.681 90.1816 104.652C90.2728 104.496 90.3509 104.333 90.416 104.164L90.6895 106ZM86.5879 101.723C86.5879 99.8216 86.998 98.6237 87.8184 98.1289C88.0527 97.9987 88.3001 97.9336 88.5605 97.9336C89.498 97.9336 90.0775 98.6562 90.2988 100.102C90.3509 100.492 90.377 100.909 90.377 101.352C90.377 103.305 89.9668 104.548 89.1465 105.082C88.9121 105.225 88.6582 105.297 88.3848 105.297C87.4733 105.297 86.9069 104.555 86.6855 103.07C86.6204 102.667 86.5879 102.217 86.5879 101.723ZM97.0176 109.125C96.7832 109.125 96.5944 108.949 96.4512 108.598C96.2689 108.142 96.1061 107.855 95.9629 107.738C95.7936 107.621 95.5983 107.562 95.377 107.562C94.9082 107.562 94.6087 107.764 94.4785 108.168C94.4525 108.272 94.4395 108.37 94.4395 108.461C94.4395 108.891 94.6999 109.242 95.2207 109.516C95.5853 109.711 96.0085 109.809 96.4902 109.809C97.584 109.809 98.4889 109.177 99.2051 107.914C99.4785 107.458 99.7389 106.905 99.9863 106.254L102.916 98.6562C103.137 98.3047 103.352 98.1159 103.561 98.0898C103.847 98.0898 104.003 97.9922 104.029 97.7969C104.042 97.7318 104.049 97.6667 104.049 97.6016H101.021V98.0898H102.486L100.357 103.539L97.9941 98.0898H99.1855V97.6016H94.5957V98.0898H95.416L99.2246 106.41C98.5996 107.96 98.0007 108.839 97.4277 109.047C97.2845 109.099 97.1478 109.125 97.0176 109.125Z" fill="#F4EBFF"/>
</g>
<g filter="url(#filter3_b_59_10741)">
<rect x="360" y="199" width="148" height="46" rx="8" fill="#7F56D9" fill-opacity="0.24"/>
<path d="M405.318 227V226.473H403.014V221.258H406.764V220.672H403.014V215.809H405.221C406.393 215.809 407.167 216.421 407.545 217.645C407.558 217.658 407.564 217.671 407.564 217.684L407.994 219.129H408.561L408.482 215.281H398.717V215.809H400.279V226.473H398.717V227H405.318ZM414.107 226.492H412.662V222.273C412.753 220.906 413.085 220.073 413.658 219.773C413.749 219.734 413.834 219.715 413.912 219.715C414.055 219.715 414.212 219.865 414.381 220.164C414.615 220.581 414.869 220.841 415.143 220.945C415.273 220.984 415.416 221.004 415.572 221.004C416.093 221.004 416.464 220.757 416.686 220.262C416.764 220.092 416.803 219.917 416.803 219.734C416.803 219.083 416.484 218.673 415.846 218.504C415.689 218.465 415.527 218.445 415.357 218.445C414.55 218.445 413.84 218.764 413.229 219.402C412.955 219.715 412.747 220.053 412.604 220.418L412.467 218.602H409.049V219.109H410.182V225.477C410.182 226.049 409.954 226.375 409.498 226.453C409.368 226.479 409.218 226.492 409.049 226.492V227H414.576C414.576 226.701 414.492 226.538 414.322 226.512C414.257 226.499 414.186 226.492 414.107 226.492ZM421.725 226.492H421.002V218.602H417.389V219.109H418.521V225.477C418.521 226.049 418.294 226.375 417.838 226.453C417.708 226.479 417.558 226.492 417.389 226.492V227H422.193C422.193 226.701 422.109 226.538 421.939 226.512C421.874 226.499 421.803 226.492 421.725 226.492ZM421.178 216.043C421.178 215.47 420.924 215.047 420.416 214.773C420.195 214.643 419.96 214.578 419.713 214.578C419.153 214.578 418.73 214.832 418.443 215.34C418.326 215.561 418.268 215.796 418.268 216.043C418.268 216.616 418.521 217.033 419.029 217.293C419.251 217.41 419.479 217.469 419.713 217.469C420.286 217.469 420.709 217.228 420.982 216.746C421.113 216.525 421.178 216.29 421.178 216.043ZM427.545 218.816C428.378 218.842 428.801 219.552 428.814 220.945C428.814 221.557 428.632 221.935 428.268 222.078C428.007 222.169 427.617 222.202 427.096 222.176L425.846 222.117C425.937 219.956 426.503 218.855 427.545 218.816ZM431.197 224.988L430.729 224.832C430.364 225.626 429.791 226.167 429.01 226.453C428.697 226.57 428.378 226.629 428.053 226.629C427.011 226.629 426.34 225.965 426.041 224.637C425.924 224.09 425.859 223.439 425.846 222.684L427.643 222.742C429.739 222.807 430.956 222.475 431.295 221.746C431.373 221.564 431.412 221.362 431.412 221.141C431.412 220.034 430.846 219.227 429.713 218.719C429.075 218.445 428.352 218.309 427.545 218.309C426.074 218.309 424.928 218.81 424.107 219.812C423.482 220.594 423.17 221.564 423.17 222.723C423.17 224.611 423.88 225.926 425.299 226.668C425.976 227.02 426.744 227.195 427.604 227.195C429.127 227.195 430.221 226.661 430.885 225.594C431.015 225.398 431.119 225.197 431.197 224.988ZM436.373 226.492H435.885L435.904 221.492C435.995 220.464 436.373 219.786 437.037 219.461C437.219 219.37 437.408 219.324 437.604 219.324C438.346 219.324 438.782 219.76 438.912 220.633C438.938 220.802 438.951 220.978 438.951 221.16V225.477C438.951 226.023 438.808 226.342 438.521 226.434C438.391 226.473 438.235 226.492 438.053 226.492V227H442.564C442.564 226.701 442.48 226.538 442.311 226.512C442.232 226.499 442.154 226.492 442.076 226.492H441.432V221.492C441.432 219.878 440.859 218.868 439.713 218.465C439.4 218.361 439.075 218.309 438.736 218.309C437.786 218.309 436.979 218.686 436.314 219.441C436.119 219.663 435.963 219.891 435.846 220.125L435.748 218.602H432.271V219.109H433.404V225.477C433.404 226.076 433.124 226.408 432.564 226.473C432.473 226.486 432.376 226.492 432.271 226.492V227H436.842C436.842 226.701 436.757 226.538 436.588 226.512C436.523 226.499 436.451 226.492 436.373 226.492ZM450.221 227H453.717C453.717 226.701 453.639 226.531 453.482 226.492C453.417 226.479 453.339 226.473 453.248 226.473H452.35V214.305H448.092V214.812H449.869V219.148C449.205 218.576 448.411 218.289 447.486 218.289C446.249 218.289 445.24 218.764 444.459 219.715C443.782 220.574 443.443 221.655 443.443 222.957C443.443 224.572 443.971 225.763 445.025 226.531C445.624 226.974 446.288 227.195 447.018 227.195C448.229 227.195 449.127 226.681 449.713 225.652C449.804 225.496 449.882 225.333 449.947 225.164L450.221 227ZM446.119 222.723C446.119 220.822 446.529 219.624 447.35 219.129C447.584 218.999 447.831 218.934 448.092 218.934C449.029 218.934 449.609 219.656 449.83 221.102C449.882 221.492 449.908 221.909 449.908 222.352C449.908 224.305 449.498 225.548 448.678 226.082C448.443 226.225 448.189 226.297 447.916 226.297C447.005 226.297 446.438 225.555 446.217 224.07C446.152 223.667 446.119 223.217 446.119 222.723ZM459.283 226.492H458.307V214.305H454.303V214.812H455.826V225.438C455.826 225.971 455.611 226.297 455.182 226.414C454.96 226.466 454.667 226.492 454.303 226.492V227H459.752C459.752 226.701 459.667 226.538 459.498 226.512C459.433 226.499 459.361 226.492 459.283 226.492ZM462.643 230.125C462.408 230.125 462.219 229.949 462.076 229.598C461.894 229.142 461.731 228.855 461.588 228.738C461.419 228.621 461.223 228.562 461.002 228.562C460.533 228.562 460.234 228.764 460.104 229.168C460.077 229.272 460.064 229.37 460.064 229.461C460.064 229.891 460.325 230.242 460.846 230.516C461.21 230.711 461.633 230.809 462.115 230.809C463.209 230.809 464.114 230.177 464.83 228.914C465.104 228.458 465.364 227.905 465.611 227.254L468.541 219.656C468.762 219.305 468.977 219.116 469.186 219.09C469.472 219.09 469.628 218.992 469.654 218.797C469.667 218.732 469.674 218.667 469.674 218.602H466.646V219.09H468.111L465.982 224.539L463.619 219.09H464.811V218.602H460.221V219.09H461.041L464.85 227.41C464.225 228.96 463.626 229.839 463.053 230.047C462.91 230.099 462.773 230.125 462.643 230.125Z" fill="#F4EBFF"/>
</g>
<g filter="url(#filter4_b_59_10741)">
<rect x="282" y="272" width="148" height="46" rx="8" fill="#7F56D9" fill-opacity="0.24"/>
<path d="M327.777 300V299.473H326.215V294.648H327.172L330.082 300.02L333.52 300C333.52 299.714 333.415 299.551 333.207 299.512C333.142 299.499 333.077 299.492 333.012 299.492H332.758L329.75 294.414C331.117 294.036 331.957 293.294 332.27 292.188C332.348 291.914 332.387 291.634 332.387 291.348C332.387 290.384 331.957 289.609 331.098 289.023C330.368 288.529 329.483 288.281 328.441 288.281H321.918V288.809H323.48V299.473H321.918V300H327.777ZM327.27 288.809C328.337 288.809 329.027 289.336 329.34 290.391C329.431 290.729 329.477 291.081 329.477 291.445C329.477 292.565 329.138 293.34 328.461 293.77C328.161 293.965 327.816 294.062 327.426 294.062H326.215V288.809H327.27ZM338.48 291.816C339.314 291.842 339.737 292.552 339.75 293.945C339.75 294.557 339.568 294.935 339.203 295.078C338.943 295.169 338.552 295.202 338.031 295.176L336.781 295.117C336.872 292.956 337.439 291.855 338.48 291.816ZM342.133 297.988L341.664 297.832C341.299 298.626 340.727 299.167 339.945 299.453C339.633 299.57 339.314 299.629 338.988 299.629C337.947 299.629 337.276 298.965 336.977 297.637C336.859 297.09 336.794 296.439 336.781 295.684L338.578 295.742C340.674 295.807 341.892 295.475 342.23 294.746C342.309 294.564 342.348 294.362 342.348 294.141C342.348 293.034 341.781 292.227 340.648 291.719C340.01 291.445 339.288 291.309 338.48 291.309C337.009 291.309 335.863 291.81 335.043 292.812C334.418 293.594 334.105 294.564 334.105 295.723C334.105 297.611 334.815 298.926 336.234 299.668C336.911 300.02 337.68 300.195 338.539 300.195C340.062 300.195 341.156 299.661 341.82 298.594C341.951 298.398 342.055 298.197 342.133 297.988ZM348.09 299.492H347.113V287.305H343.109V287.812H344.633V298.438C344.633 298.971 344.418 299.297 343.988 299.414C343.767 299.466 343.474 299.492 343.109 299.492V300H348.559C348.559 299.701 348.474 299.538 348.305 299.512C348.24 299.499 348.168 299.492 348.09 299.492ZM353.734 299.492H353.012V291.602H349.398V292.109H350.531V298.477C350.531 299.049 350.303 299.375 349.848 299.453C349.717 299.479 349.568 299.492 349.398 299.492V300H354.203C354.203 299.701 354.118 299.538 353.949 299.512C353.884 299.499 353.812 299.492 353.734 299.492ZM353.188 289.043C353.188 288.47 352.934 288.047 352.426 287.773C352.204 287.643 351.97 287.578 351.723 287.578C351.163 287.578 350.74 287.832 350.453 288.34C350.336 288.561 350.277 288.796 350.277 289.043C350.277 289.616 350.531 290.033 351.039 290.293C351.26 290.41 351.488 290.469 351.723 290.469C352.296 290.469 352.719 290.228 352.992 289.746C353.122 289.525 353.188 289.29 353.188 289.043ZM362.172 300.195C363.122 300.195 363.715 299.85 363.949 299.16C364.027 298.9 364.086 298.568 364.125 298.164L363.617 298.145C363.539 299.043 363.311 299.499 362.934 299.512C362.647 299.486 362.504 299.16 362.504 298.535V294.453C362.504 292.826 361.749 291.823 360.238 291.445C359.848 291.354 359.424 291.309 358.969 291.309C357.198 291.309 356.085 291.693 355.629 292.461C355.512 292.656 355.453 292.865 355.453 293.086C355.453 293.594 355.694 293.913 356.176 294.043C356.293 294.082 356.417 294.102 356.547 294.102C357.107 294.102 357.484 293.828 357.68 293.281C357.706 293.203 357.745 293.073 357.797 292.891C357.94 292.37 358.122 292.044 358.344 291.914C358.487 291.849 358.65 291.816 358.832 291.816C359.444 291.816 359.815 292.188 359.945 292.93C359.997 293.203 360.023 293.529 360.023 293.906V295.176C356.677 295.241 354.997 296.126 354.984 297.832C354.984 298.991 355.492 299.733 356.508 300.059C356.807 300.15 357.139 300.195 357.504 300.195C358.611 300.195 359.424 299.779 359.945 298.945C360.049 298.776 360.134 298.6 360.199 298.418C360.473 299.538 361.13 300.13 362.172 300.195ZM358.52 299.355C357.868 299.329 357.536 298.75 357.523 297.617C357.523 296.758 357.875 296.198 358.578 295.938C358.956 295.82 359.438 295.749 360.023 295.723V297.617C359.776 298.529 359.379 299.089 358.832 299.297C358.715 299.336 358.611 299.355 358.52 299.355ZM370.453 300.195C371.729 300.195 372.751 299.714 373.52 298.75C374.197 297.904 374.535 296.829 374.535 295.527C374.535 293.835 374.008 292.617 372.953 291.875C372.406 291.497 371.801 291.309 371.137 291.309C369.796 291.322 368.786 291.986 368.109 293.301V287.305H364.516V287.832H365.629V298.457C365.629 299.017 365.414 299.342 364.984 299.434C364.841 299.46 364.685 299.473 364.516 299.473V300H367.504L367.66 298.633C368.35 299.661 369.281 300.182 370.453 300.195ZM370.18 292.246C371.299 292.272 371.859 293.457 371.859 295.801C371.846 298.366 371.241 299.655 370.043 299.668C369.197 299.668 368.624 299.108 368.324 297.988C368.181 297.467 368.109 296.862 368.109 296.172C368.109 294.388 368.487 293.19 369.242 292.578C369.529 292.357 369.841 292.246 370.18 292.246ZM380.355 299.492H379.379V287.305H375.375V287.812H376.898V298.438C376.898 298.971 376.684 299.297 376.254 299.414C376.033 299.466 375.74 299.492 375.375 299.492V300H380.824C380.824 299.701 380.74 299.538 380.57 299.512C380.505 299.499 380.434 299.492 380.355 299.492ZM386.137 291.816C386.97 291.842 387.393 292.552 387.406 293.945C387.406 294.557 387.224 294.935 386.859 295.078C386.599 295.169 386.208 295.202 385.688 295.176L384.438 295.117C384.529 292.956 385.095 291.855 386.137 291.816ZM389.789 297.988L389.32 297.832C388.956 298.626 388.383 299.167 387.602 299.453C387.289 299.57 386.97 299.629 386.645 299.629C385.603 299.629 384.932 298.965 384.633 297.637C384.516 297.09 384.451 296.439 384.438 295.684L386.234 295.742C388.331 295.807 389.548 295.475 389.887 294.746C389.965 294.564 390.004 294.362 390.004 294.141C390.004 293.034 389.438 292.227 388.305 291.719C387.667 291.445 386.944 291.309 386.137 291.309C384.665 291.309 383.52 291.81 382.699 292.812C382.074 293.594 381.762 294.564 381.762 295.723C381.762 297.611 382.471 298.926 383.891 299.668C384.568 300.02 385.336 300.195 386.195 300.195C387.719 300.195 388.812 299.661 389.477 298.594C389.607 298.398 389.711 298.197 389.789 297.988Z" fill="#F4EBFF"/>
</g>
<defs>
<filter id="filter0_b_59_10741" x="318" y="40" width="180" height="78" filterUnits="userSpaceOnUse" color-interpolation-filters="sRGB">
<feFlood flood-opacity="0" result="BackgroundImageFix"/>
<feGaussianBlur in="BackgroundImageFix" stdDeviation="8"/>
<feComposite in2="SourceAlpha" operator="in" result="effect1_backgroundBlur_59_10741"/>
<feBlend mode="normal" in="SourceGraphic" in2="effect1_backgroundBlur_59_10741" result="shape"/>
</filter>
<filter id="filter1_b_59_10741" x="35" y="242" width="180" height="78" filterUnits="userSpaceOnUse" color-interpolation-filters="sRGB">
<feFlood flood-opacity="0" result="BackgroundImageFix"/>
<feGaussianBlur in="BackgroundImageFix" stdDeviation="8"/>
<feComposite in2="SourceAlpha" operator="in" result="effect1_backgroundBlur_59_10741"/>
<feBlend mode="normal" in="SourceGraphic" in2="effect1_backgroundBlur_59_10741" result="shape"/>
</filter>
<filter id="filter2_b_59_10741" x="-16" y="62" width="180" height="78" filterUnits="userSpaceOnUse" color-interpolation-filters="sRGB">
<feFlood flood-opacity="0" result="BackgroundImageFix"/>
<feGaussianBlur in="BackgroundImageFix" stdDeviation="8"/>
<feComposite in2="SourceAlpha" operator="in" result="effect1_backgroundBlur_59_10741"/>
<feBlend mode="normal" in="SourceGraphic" in2="effect1_backgroundBlur_59_10741" result="shape"/>
</filter>
<filter id="filter3_b_59_10741" x="344" y="183" width="180" height="78" filterUnits="userSpaceOnUse" color-interpolation-filters="sRGB">
<feFlood flood-opacity="0" result="BackgroundImageFix"/>
<feGaussianBlur in="BackgroundImageFix" stdDeviation="8"/>
<feComposite in2="SourceAlpha" operator="in" result="effect1_backgroundBlur_59_10741"/>
<feBlend mode="normal" in="SourceGraphic" in2="effect1_backgroundBlur_59_10741" result="shape"/>
</filter>
<filter id="filter4_b_59_10741" x="266" y="256" width="180" height="78" filterUnits="userSpaceOnUse" color-interpolation-filters="sRGB">
<feFlood flood-opacity="0" result="BackgroundImageFix"/>
<feGaussianBlur in="BackgroundImageFix" stdDeviation="8"/>
<feComposite in2="SourceAlpha" operator="in" result="effect1_backgroundBlur_59_10741"/>
<feBlend mode="normal" in="SourceGraphic" in2="effect1_backgroundBlur_59_10741" result="shape"/>
</filter>
</defs>
</svg>
