<svg width="41" height="42" viewBox="0 0 41 42" fill="none" xmlns="http://www.w3.org/2000/svg">
<g clip-path="url(#clip0_603_10072)">
<path d="M2.28499 17.9172C2.28543 20.7369 2.94332 23.5179 4.20665 26.04C5.46997 28.5622 7.30407 30.7565 9.56387 32.4493C11.8237 34.1421 14.4472 35.2869 17.2269 35.7933C20.0066 36.2997 22.8662 36.1537 25.5797 35.3669C28.2931 34.5801 30.7858 33.1741 32.8607 31.26C34.9356 29.3459 36.5357 26.9763 37.5345 24.3386C38.5333 21.701 38.9034 18.8675 38.6155 16.0625C38.3275 13.2575 37.3895 10.5578 35.8756 8.17692C38.3121 11.0673 39.8779 14.5875 40.3916 18.3295C40.9053 22.0716 40.3459 25.8823 38.7782 29.3201C37.2104 32.7579 34.6986 35.6819 31.5336 37.7535C28.3687 39.825 24.6804 40.9591 20.896 41.0245C17.1116 41.0898 13.3861 40.0837 10.1513 38.1227C6.91646 36.1617 4.30471 33.3261 2.61871 29.9445C0.932705 26.563 0.24148 22.7738 0.625136 19.0163C1.00879 15.2587 2.45162 11.6866 4.78642 8.71381C3.14241 11.503 2.27856 14.6813 2.28499 17.9172Z" fill="#3F2B89"/>
<path d="M23.2198 2.44734C20.8329 2.44768 18.4787 3.00223 16.3436 4.06711C14.2084 5.13199 12.3508 6.67801 10.9177 8.58289C9.48463 10.4878 8.51532 12.6992 8.08646 15.0424C7.6576 17.3856 7.78095 19.7963 8.44676 22.0837C9.11257 24.3711 10.3026 26.4726 11.9227 28.2219C13.5427 29.9712 15.5485 31.3203 17.7812 32.1626C20.014 33.005 22.4125 33.3173 24.7871 33.075C27.1616 32.8328 29.4472 32.0425 31.4629 30.7667C29.0168 32.8214 26.0372 34.1423 22.8695 34.5762C19.7018 35.01 16.4757 34.5391 13.5652 33.218C10.6548 31.8969 8.17918 29.7797 6.42536 27.1118C4.67154 24.4439 3.71135 21.3347 3.65609 18.1445C3.60084 14.9542 4.45278 11.8137 6.11317 9.08698C7.77356 6.36023 10.1744 4.15892 13.0373 2.73822C15.9003 1.31752 19.1081 0.735624 22.289 1.05999C25.4698 1.38435 28.4934 2.60169 31.0092 4.57089C28.6493 3.18165 25.9597 2.4484 23.2198 2.44734Z" fill="#7356C0"/>
<path d="M30.5195 28.3586C31.9059 26.9744 32.9506 25.2872 33.571 23.4306C34.1914 21.5739 34.3705 19.5987 34.094 17.6611C33.8176 15.7235 33.0933 13.8767 31.9783 12.2666C30.8633 10.6565 29.3883 9.32731 27.6698 8.38413C25.9513 7.44095 24.0365 6.90965 22.0768 6.83222C20.1171 6.75479 18.1662 7.13336 16.3784 7.938C14.5906 8.74264 13.0148 9.95129 11.7758 11.4684C10.5367 12.9855 9.66833 14.7694 9.23926 16.6791C9.46619 14.0668 10.4303 11.5721 12.0198 9.48408C13.6093 7.39609 15.7592 5.80031 18.2203 4.88164C20.6814 3.96296 23.353 3.75901 25.9255 4.29342C28.498 4.82782 30.8661 6.07871 32.7554 7.90112C34.6447 9.72353 35.9778 12.0429 36.6003 14.5904C37.2228 17.1379 37.1092 19.8092 36.2726 22.2949C35.436 24.7806 33.9107 26.9789 31.8735 28.635C29.8362 30.2911 27.3704 31.3372 24.7618 31.6521C26.9407 31.0857 28.9285 29.9486 30.5195 28.3586Z" fill="#B69EEA"/>
</g>
<defs>
<clipPath id="clip0_603_10072">
<rect width="40.0549" height="40.0549" fill="white" transform="translate(0.521973 0.972527)"/>
</clipPath>
</defs>
</svg>
